<svg width="24" height="24" viewBox="0 0 24 24" fill="none" xmlns="http://www.w3.org/2000/svg" aria-hidden="true">
  <rect width="24" height="24" rx="6" fill="#0f0f0e"/>
  <path d="M17.4 10.06a3.3 3.3 0 0 0-.28-2.71 3.34 3.34 0 0 0-3.6-1.6 3.3 3.3 0 0 0-2.49-1.11 3.34 3.34 0 0 0-3.18 2.3 3.3 3.3 0 0 0-2.2 1.6 3.34 3.34 0 0 0 .4 3.91 3.3 3.3 0 0 0 .28 2.71 3.34 3.34 0 0 0 3.6 1.6 3.3 3.3 0 0 0 2.49 1.11 3.34 3.34 0 0 0 3.19-2.31 3.3 3.3 0 0 0 2.2-1.6 3.34 3.34 0 0 0-.41-3.9Zm-4.96 6.93a2.48 2.48 0 0 1-1.59-.57l.08-.04 2.64-1.52a.43.43 0 0 0 .22-.37v-3.72l1.12.65v3.07a2.49 2.49 0 0 1-2.47 2.5Zm-5.33-2.27a2.48 2.48 0 0 1-.3-1.67l.08.05 2.64 1.52a.43.43 0 0 0 .43 0l3.22-1.86v1.29l-2.67 1.54a2.49 2.49 0 0 1-3.4-.91ZM6.4 9.2a2.48 2.48 0 0 1 1.3-1.09v3.13a.43.43 0 0 0 .21.37l3.22 1.86-1.12.65-2.64-1.53a2.49 2.49 0 0 1-.97-3.39Zm9.17 2.13L12.35 9.46l1.12-.64 2.64 1.52a2.49 2.49 0 0 1-.38 4.49v-3.13a.43.43 0 0 0-.22-.37Zm1.11-1.68-.08-.05-2.64-1.52a.43.43 0 0 0-.43 0l-3.22 1.86V8.66l2.67-1.54a2.49 2.49 0 0 1 3.7 2.58Zm-6.97 2.3-1.12-.64V8.24a2.49 2.49 0 0 1 4.08-1.91l-.08.05L9.83 7.9a.43.43 0 0 0-.22.37l.01 3.71Zm.6-1.31L12 9.86l1.28.74v1.48l-1.28.74-1.28-.74v-1.48Z" fill="#fff"/>
</svg>
